<svg width="1324" height="1052" viewBox="0 0 1324 1052" fill="none" xmlns="http://www.w3.org/2000/svg">
<circle cx="661.999" cy="63.4795" r="63.4795" fill="#FC8793"/>
<circle cx="27.2055" cy="625.726" r="27.2055" fill="#8E59D2"/>
<circle cx="154.166" cy="988.466" r="45.3425" fill="#EEB36B"/>
<circle cx="1124.5" cy="707.342" r="36.274" fill="#FC8793"/>
<circle cx="583.591" cy="616.379" r="435.288" fill="#316DF3"/>
<circle cx="837.509" cy="435.009" r="272.055" fill="#FAB45C" fill-opacity="0.8"/>
<circle cx="456.633" cy="507.557" r="344.603" fill="#8044CD" fill-opacity="0.8"/>
<circle cx="783.1" cy="779.611" r="253.918" fill="#FD727F" fill-opacity="0.8"/>
<circle cx="1251.45" cy="580.384" r="72.5479" fill="#497CF2"/>
<path d="M531.998 594.677C528.873 608.968 516.125 619.702 500.91 619.702C496.854 619.702 493.565 622.99 493.565 627.047C493.565 631.104 496.854 634.392 500.91 634.392C524.192 634.392 543.532 617.198 546.905 594.841C561.16 593.3 574.319 586.948 584.506 576.55C587.345 573.653 587.297 569.002 584.399 566.164C581.502 563.327 576.851 563.372 574.012 566.269C565.003 575.465 552.954 580.529 540.083 580.529C513.893 580.529 492.586 559.222 492.586 533.032C492.586 528.975 489.297 525.688 485.241 525.688C481.185 525.688 477.896 528.975 477.896 533.032C477.896 564.581 501.516 590.699 531.998 594.677Z" fill="white"/>
<path d="M563.097 658.384C563.097 654.327 559.808 651.04 555.752 651.04C521.462 651.04 493.565 678.936 493.565 713.226C493.565 713.581 493.578 713.936 493.584 714.292C490.852 713.924 488.071 713.716 485.241 713.716C481.185 713.716 477.896 717.004 477.896 721.061C477.896 725.118 481.185 728.406 485.241 728.406C511.431 728.406 532.738 749.713 532.738 775.903C532.738 779.96 536.026 783.248 540.083 783.248C544.139 783.248 547.428 779.96 547.428 775.903C547.428 749.842 531.306 727.488 508.518 718.253C508.344 716.589 508.255 714.906 508.255 713.226C508.255 687.036 529.562 665.729 555.752 665.729C559.808 665.729 563.097 662.442 563.097 658.384Z" fill="white"/>
<path d="M813.802 595.709C813.802 578.987 807.123 563.14 795.317 551.486C797.187 545.505 798.133 539.317 798.133 533.032C798.133 502.797 776.439 477.545 747.802 471.992C749.991 466.536 751.126 460.688 751.126 454.687C751.126 435.534 739.488 419.052 722.915 411.929C695.304 389.937 665.104 376.831 641.932 376.831C629.051 376.831 617.628 383.165 610.593 392.876C603.559 383.165 592.136 376.831 579.255 376.831C556.083 376.831 525.883 389.937 498.271 411.929C481.698 419.052 470.061 435.534 470.061 454.687C470.061 460.688 471.196 466.536 473.385 471.992C444.748 477.545 423.054 502.797 423.054 533.032C423.054 539.317 423.999 545.504 425.869 551.486C414.064 563.14 407.385 578.987 407.385 595.709C407.385 608.781 411.448 620.917 418.366 630.94C411.177 641.332 407.385 653.455 407.385 666.22C407.385 688.83 419.711 709.547 439.228 720.47C438.892 723.263 438.723 726.081 438.723 728.896C438.723 759.396 458.618 786.361 487.483 795.551C500.039 817.04 522.91 830.255 547.917 830.255C575.333 830.255 599.105 814.409 610.593 791.402C622.082 814.409 645.854 830.255 673.27 830.255C698.277 830.255 721.148 817.04 733.704 795.551C762.569 786.36 782.464 759.395 782.464 728.896C782.464 726.081 782.294 723.263 781.959 720.47C801.475 709.547 813.802 688.83 813.802 666.22C813.802 653.455 810.01 641.332 802.821 630.94C809.739 620.917 813.802 608.781 813.802 595.709ZM547.917 815.566C527.323 815.566 508.557 804.211 498.942 785.935C497.989 784.125 496.327 782.794 494.351 782.262C470.247 775.775 453.413 753.83 453.413 728.896C453.413 725.165 453.789 721.428 454.53 717.787C455.218 714.411 453.466 711.01 450.317 709.609C433.16 701.982 422.075 684.95 422.075 666.22C422.075 657.7 424.284 649.557 428.5 642.345C439.464 652.012 453.84 657.895 469.572 657.895C473.628 657.895 476.916 654.608 476.916 650.55C476.916 646.493 473.628 643.206 469.572 643.206C443.382 643.206 422.075 621.899 422.075 595.709C422.075 581.61 428.295 568.323 439.142 559.257C441.59 557.211 442.438 553.817 441.238 550.861C438.919 545.145 437.744 539.147 437.744 533.032C437.744 506.842 459.051 485.535 485.241 485.535C511.431 485.535 532.738 506.842 532.738 533.032C532.738 537.09 536.026 540.377 540.082 540.377C544.139 540.377 547.427 537.09 547.427 533.032C547.427 500.086 521.669 473.056 489.235 470.987C486.295 466.073 484.751 460.485 484.751 454.687C484.751 441.594 492.699 430.326 504.022 425.445C504.46 425.315 504.889 425.145 505.303 424.929C508.811 423.595 512.61 422.859 516.579 422.859C528.876 422.859 539.854 429.735 545.23 440.805C547.002 444.455 551.398 445.977 555.046 444.203C558.694 442.431 560.216 438.037 558.444 434.388C552.307 421.752 540.694 412.67 527.319 409.453C546.065 398.014 564.52 391.521 579.255 391.521C592.485 391.521 603.249 402.283 603.249 415.514V510.558C596.649 505.322 588.314 502.184 579.255 502.184C575.199 502.184 571.91 505.471 571.91 509.529C571.91 513.586 575.199 516.873 579.255 516.873C592.485 516.873 603.249 527.636 603.249 540.867V717.417C594.116 705.635 581.242 696.743 566.098 692.674C562.182 691.625 558.152 693.944 557.099 697.861C556.046 701.78 558.369 705.809 562.287 706.86C586.404 713.34 603.249 735.288 603.249 760.234C603.249 790.744 578.427 815.566 547.917 815.566ZM770.87 709.61C767.721 711.011 765.969 714.411 766.657 717.788C767.398 721.429 767.774 725.166 767.774 728.897C767.774 753.831 750.94 775.776 726.836 782.263C724.86 782.795 723.197 784.126 722.245 785.936C712.63 804.211 693.864 815.566 673.27 815.566C642.76 815.566 617.938 790.744 617.938 760.234C617.938 758.169 617.842 756.121 617.663 754.093C617.837 753.465 617.938 752.806 617.938 752.122V509.529C617.938 496.298 628.702 485.535 641.932 485.535C645.988 485.535 649.277 482.248 649.277 478.19C649.277 474.133 645.988 470.845 641.932 470.845C632.873 470.845 624.538 473.984 617.938 479.22V415.514C617.938 402.283 628.702 391.521 641.932 391.521C656.666 391.521 675.122 398.014 693.868 409.453C680.493 412.669 668.88 421.752 662.743 434.388C660.971 438.038 662.492 442.432 666.141 444.203C669.79 445.976 674.185 444.455 675.957 440.805C681.333 429.735 692.311 422.859 704.608 422.859C708.577 422.859 712.377 423.595 715.884 424.929C716.297 425.145 716.726 425.314 717.162 425.444C728.487 430.325 736.436 441.593 736.436 454.687C736.436 460.485 734.892 466.073 731.952 470.987C699.518 473.056 673.76 500.086 673.76 533.032C673.76 537.09 677.048 540.377 681.104 540.377C685.161 540.377 688.449 537.09 688.449 533.032C688.449 506.842 709.756 485.535 735.946 485.535C762.136 485.535 783.443 506.842 783.443 533.032C783.443 539.147 782.268 545.145 779.95 550.861C778.75 553.818 779.597 557.211 782.046 559.257C792.892 568.323 799.112 581.61 799.112 595.709C799.112 621.899 777.805 643.206 751.615 643.206C747.559 643.206 744.27 646.493 744.27 650.55C744.27 654.608 747.559 657.895 751.615 657.895C767.347 657.895 781.723 652.012 792.687 642.345C796.904 649.557 799.112 657.7 799.112 666.22C799.112 684.95 788.026 701.982 770.87 709.61Z" fill="white"/>
<path d="M735.948 611.867C720.733 611.867 707.984 601.133 704.859 586.842C735.342 582.864 758.962 556.746 758.962 525.197C758.962 521.14 755.673 517.853 751.617 517.853C747.561 517.853 744.272 521.14 744.272 525.197C744.272 551.387 722.965 572.694 696.775 572.694C683.904 572.694 671.854 567.63 662.846 558.435C660.008 555.538 655.357 555.49 652.459 558.329C649.561 561.168 649.513 565.818 652.352 568.715C662.539 579.113 675.698 585.465 689.953 587.006C693.326 609.363 712.666 626.557 735.948 626.557C740.004 626.557 743.293 623.269 743.293 619.212C743.293 615.155 740.004 611.867 735.948 611.867Z" fill="white"/>
<path d="M712.445 698.048C709.614 698.048 706.833 698.255 704.102 698.623C704.108 698.268 704.121 697.912 704.121 697.558C704.121 663.268 676.224 635.371 641.934 635.371C637.877 635.371 634.589 638.659 634.589 642.716C634.589 646.773 637.877 650.061 641.934 650.061C668.124 650.061 689.431 671.368 689.431 697.558C689.431 699.236 689.342 700.921 689.167 702.585C666.38 711.82 650.258 734.174 650.258 760.234C650.258 764.292 653.547 767.579 657.603 767.579C661.659 767.579 664.948 764.292 664.948 760.234C664.948 734.044 686.255 712.737 712.445 712.737C716.501 712.737 719.79 709.45 719.79 705.392C719.79 701.335 716.501 698.048 712.445 698.048Z" fill="white"/>
</svg>
